<?xml version="1.0" encoding="UTF-8" standalone="no"?>
<!-- Created with Inkscape (http://www.inkscape.org/) -->

<svg
   xmlns:dc="http://purl.org/dc/elements/1.1/"
   xmlns:cc="http://creativecommons.org/ns#"
   xmlns:rdf="http://www.w3.org/1999/02/22-rdf-syntax-ns#"
   xmlns:svg="http://www.w3.org/2000/svg"
   xmlns="http://www.w3.org/2000/svg"
   xmlns:sodipodi="http://sodipodi.sourceforge.net/DTD/sodipodi-0.dtd"
   xmlns:inkscape="http://www.inkscape.org/namespaces/inkscape"
   width="80.760605mm"
   height="57.203186mm"
   viewBox="0 0 286.15962 202.68845"
   id="svg4287"
   version="1.1"
   inkscape:version="0.91 r"
   sodipodi:docname="poly.svg">
  <defs
     id="defs4289">
    <clipPath
       clipPathUnits="userSpaceOnUse"
       id="clipPath20">
      <path
         d="m 0,0 2834.65,0 0,1615.75 L 0,1615.75 0,0 Z"
         id="path22"
         inkscape:connector-curvature="0" />
    </clipPath>
  </defs>
  <sodipodi:namedview
     id="base"
     pagecolor="#ffffff"
     bordercolor="#666666"
     borderopacity="1.0"
     inkscape:pageopacity="0.0"
     inkscape:pageshadow="2"
     inkscape:zoom="0.7"
     inkscape:cx="502.76863"
     inkscape:cy="246.98722"
     inkscape:document-units="px"
     inkscape:current-layer="layer1"
     showgrid="false"
     fit-margin-top="0"
     fit-margin-left="0"
     fit-margin-right="0"
     fit-margin-bottom="0"
     inkscape:window-width="1309"
     inkscape:window-height="744"
     inkscape:window-x="57"
     inkscape:window-y="24"
     inkscape:window-maximized="1" />
  <metadata
     id="metadata4292">
    <rdf:RDF>
      <cc:Work
         rdf:about="">
        <dc:format>image/svg+xml</dc:format>
        <dc:type
           rdf:resource="http://purl.org/dc/dcmitype/StillImage" />
        <dc:title></dc:title>
      </cc:Work>
    </rdf:RDF>
  </metadata>
  <g
     inkscape:label="Layer 1"
     inkscape:groupmode="layer"
     id="layer1"
     transform="translate(-108.34876,-816.73225)">
    <g
       id="g16"
       transform="matrix(0.125,0,0,-0.125,81.840881,1019.4207)">
      <g
         id="g18"
         clip-path="url(#clipPath20)">
        <path
           d="m 661.121,698.328 569.409,130.621 4.38,-437.668 -573.789,307.047"
           style="fill:#36b370;fill-opacity:1;fill-rule:nonzero;stroke:none"
           id="path24"
           inkscape:connector-curvature="0" />
        <path
           d="m 1234.91,391.281 653.16,194.938 -657.54,242.73 4.38,-437.668"
           style="fill:#206247;fill-opacity:1;fill-rule:nonzero;stroke:none"
           id="path26"
           inkscape:connector-curvature="0" />
        <path
           d="M 1230.53,828.949 705.078,1141.96 661.121,698.328 1230.53,828.949"
           style="fill:#45bd78;fill-opacity:1;fill-rule:nonzero;stroke:none"
           id="path28"
           inkscape:connector-curvature="0" />
        <path
           d="m 705.078,1141.96 524.052,223.47 1.4,-536.481 -525.452,313.011"
           style="fill:#37b070;fill-opacity:1;fill-rule:nonzero;stroke:none"
           id="path30"
           inkscape:connector-curvature="0" />
        <path
           d="M 661.121,698.328 519.914,849.195 705.078,1141.96 661.121,698.328"
           style="fill:#93d896;fill-opacity:1;fill-rule:nonzero;stroke:none"
           id="path32"
           inkscape:connector-curvature="0" />
        <path
           d="M 1234.91,391.281 906.898,109.461 661.121,698.328 1234.91,391.281"
           style="fill:#68c983;fill-opacity:1;fill-rule:nonzero;stroke:none"
           id="path34"
           inkscape:connector-curvature="0" />
        <path
           d="M 1888.07,586.219 1528.79,100.488 1234.91,391.281 1888.07,586.219"
           style="fill:#2f8765;fill-opacity:1;fill-rule:nonzero;stroke:none"
           id="path36"
           inkscape:connector-curvature="0" />
        <path
           d="M 906.898,109.461 1528.79,100.488 1234.91,391.281 906.898,109.461"
           style="fill:#24684e;fill-opacity:1;fill-rule:nonzero;stroke:none"
           id="path38"
           inkscape:connector-curvature="0" />
        <path
           d="M 661.121,698.328 547.539,366.762 519.914,849.195 661.121,698.328"
           style="fill:#b9e5bb;fill-opacity:1;fill-rule:nonzero;stroke:none"
           id="path40"
           inkscape:connector-curvature="0" />
        <path
           d="M 906.898,109.461 547.539,366.762 661.121,698.328 906.898,109.461"
           style="fill:#45bd78;fill-opacity:1;fill-rule:nonzero;stroke:none"
           id="path42"
           inkscape:connector-curvature="0" />
        <path
           d="M 1528.79,100.488 1201.84,-229.75 906.898,109.461 1528.79,100.488"
           style="fill:#37b171;fill-opacity:1;fill-rule:nonzero;stroke:none"
           id="path44"
           inkscape:connector-curvature="0" />
        <path
           d="M 547.539,366.762 795.773,-12.2305 906.898,109.461 547.539,366.762"
           style="fill:#66c87f;fill-opacity:1;fill-rule:nonzero;stroke:none"
           id="path46"
           inkscape:connector-curvature="0" />
        <path
           d="M 1201.84,-229.75 795.773,-12.2305 906.898,109.461 1201.84,-229.75"
           style="fill:#2f8765;fill-opacity:1;fill-rule:nonzero;stroke:none"
           id="path48"
           inkscape:connector-curvature="0" />
        <path
           d="M 1528.79,100.488 2019.31,202.121 1888.07,586.219 1528.79,100.488"
           style="fill:#56c384;fill-opacity:1;fill-rule:nonzero;stroke:none"
           id="path50"
           inkscape:connector-curvature="0" />
        <path
           d="m 1201.84,-229.75 563.19,51.379 -236.24,278.859 -326.95,-330.238"
           style="fill:#206247;fill-opacity:1;fill-rule:nonzero;stroke:none"
           id="path52"
           inkscape:connector-curvature="0" />
        <path
           d="m 2019.31,202.121 -254.28,-380.492 -236.24,278.859 490.52,101.633"
           style="fill:#37b171;fill-opacity:1;fill-rule:nonzero;stroke:none"
           id="path54"
           inkscape:connector-curvature="0" />
        <path
           d="M 705.078,1141.96 212.063,1414.53 519.914,849.195 705.078,1141.96"
           style="fill:#45bd78;fill-opacity:1;fill-rule:nonzero;stroke:none"
           id="path56"
           inkscape:connector-curvature="0" />
        <path
           d="m 1888.07,586.219 468.8,219.82 -1126.34,22.91 657.54,-242.73"
           style="fill:#287e59;fill-opacity:1;fill-rule:nonzero;stroke:none"
           id="path58"
           inkscape:connector-curvature="0" />
        <path
           d="m 2019.31,202.121 -131.24,384.098 468.8,219.82 -337.56,-603.918"
           style="fill:#47bf8b;fill-opacity:1;fill-rule:nonzero;stroke:none"
           id="path60"
           inkscape:connector-curvature="0" />
        <path
           d="m 1230.53,828.949 1126.34,-22.91 -1127.74,559.391 1.4,-536.481"
           style="fill:#69c984;fill-opacity:1;fill-rule:nonzero;stroke:none"
           id="path62"
           inkscape:connector-curvature="0" />
        <path
           d="M 212.063,1414.53 1229.13,1365.43 705.078,1141.96 212.063,1414.53"
           style="fill:#24684e;fill-opacity:1;fill-rule:nonzero;stroke:none"
           id="path64"
           inkscape:connector-curvature="0" />
        <path
           d="m 661.121,698.328 569.409,130.621 4.38,-437.668 -573.789,307.047"
           style="fill:#36b370;fill-opacity:1;fill-rule:nonzero;stroke:none"
           id="path66"
           inkscape:connector-curvature="0" />
        <path
           d="m 1234.91,391.281 653.16,194.938 -657.54,242.73 4.38,-437.668"
           style="fill:#206247;fill-opacity:1;fill-rule:nonzero;stroke:none"
           id="path68"
           inkscape:connector-curvature="0" />
        <path
           d="M 1230.53,828.949 705.078,1141.96 661.121,698.328 1230.53,828.949"
           style="fill:#45bd78;fill-opacity:1;fill-rule:nonzero;stroke:none"
           id="path70"
           inkscape:connector-curvature="0" />
        <path
           d="m 705.078,1141.96 524.052,223.47 1.4,-536.481 -525.452,313.011"
           style="fill:#37b070;fill-opacity:1;fill-rule:nonzero;stroke:none"
           id="path72"
           inkscape:connector-curvature="0" />
        <path
           d="M 661.121,698.328 519.914,849.195 705.078,1141.96 661.121,698.328"
           style="fill:#93d896;fill-opacity:1;fill-rule:nonzero;stroke:none"
           id="path74"
           inkscape:connector-curvature="0" />
        <path
           d="M 1234.91,391.281 906.898,109.461 661.121,698.328 1234.91,391.281"
           style="fill:#68c983;fill-opacity:1;fill-rule:nonzero;stroke:none"
           id="path76"
           inkscape:connector-curvature="0" />
        <path
           d="M 1888.07,586.219 1528.79,100.488 1234.91,391.281 1888.07,586.219"
           style="fill:#2f8765;fill-opacity:1;fill-rule:nonzero;stroke:none"
           id="path78"
           inkscape:connector-curvature="0" />
        <path
           d="M 906.898,109.461 1528.79,100.488 1234.91,391.281 906.898,109.461"
           style="fill:#24684e;fill-opacity:1;fill-rule:nonzero;stroke:none"
           id="path80"
           inkscape:connector-curvature="0" />
        <path
           d="M 661.121,698.328 547.539,366.762 519.914,849.195 661.121,698.328"
           style="fill:#b9e5bb;fill-opacity:1;fill-rule:nonzero;stroke:none"
           id="path82"
           inkscape:connector-curvature="0" />
        <path
           d="M 906.898,109.461 547.539,366.762 661.121,698.328 906.898,109.461"
           style="fill:#45bd78;fill-opacity:1;fill-rule:nonzero;stroke:none"
           id="path84"
           inkscape:connector-curvature="0" />
        <path
           d="M 1528.79,100.488 1201.84,-229.75 906.898,109.461 1528.79,100.488"
           style="fill:#37b171;fill-opacity:1;fill-rule:nonzero;stroke:none"
           id="path86"
           inkscape:connector-curvature="0" />
        <path
           d="M 547.539,366.762 795.773,-12.2305 906.898,109.461 547.539,366.762"
           style="fill:#66c87f;fill-opacity:1;fill-rule:nonzero;stroke:none"
           id="path88"
           inkscape:connector-curvature="0" />
        <path
           d="M 1201.84,-229.75 795.773,-12.2305 906.898,109.461 1201.84,-229.75"
           style="fill:#2f8765;fill-opacity:1;fill-rule:nonzero;stroke:none"
           id="path90"
           inkscape:connector-curvature="0" />
        <path
           d="M 1528.79,100.488 2019.31,202.121 1888.07,586.219 1528.79,100.488"
           style="fill:#56c384;fill-opacity:1;fill-rule:nonzero;stroke:none"
           id="path92"
           inkscape:connector-curvature="0" />
        <path
           d="m 1201.84,-229.75 563.19,51.379 -236.24,278.859 -326.95,-330.238"
           style="fill:#206247;fill-opacity:1;fill-rule:nonzero;stroke:none"
           id="path94"
           inkscape:connector-curvature="0" />
        <path
           d="m 2019.31,202.121 -254.28,-380.492 -236.24,278.859 490.52,101.633"
           style="fill:#37b171;fill-opacity:1;fill-rule:nonzero;stroke:none"
           id="path96"
           inkscape:connector-curvature="0" />
        <path
           d="M 705.078,1141.96 212.063,1414.53 519.914,849.195 705.078,1141.96"
           style="fill:#45bd78;fill-opacity:1;fill-rule:nonzero;stroke:none"
           id="path98"
           inkscape:connector-curvature="0" />
        <path
           d="m 1888.07,586.219 468.8,219.82 -1126.34,22.91 657.54,-242.73"
           style="fill:#287e59;fill-opacity:1;fill-rule:nonzero;stroke:none"
           id="path100"
           inkscape:connector-curvature="0" />
        <path
           d="m 2019.31,202.121 -131.24,384.098 468.8,219.82 -337.56,-603.918"
           style="fill:#47bf8b;fill-opacity:1;fill-rule:nonzero;stroke:none"
           id="path102"
           inkscape:connector-curvature="0" />
        <path
           d="m 1230.53,828.949 1126.34,-22.91 -1127.74,559.391 1.4,-536.481"
           style="fill:#69c984;fill-opacity:1;fill-rule:nonzero;stroke:none"
           id="path104"
           inkscape:connector-curvature="0" />
        <path
           d="M 212.063,1414.53 1229.13,1365.43 705.078,1141.96 212.063,1414.53"
           style="fill:#24684e;fill-opacity:1;fill-rule:nonzero;stroke:none"
           id="path106"
           inkscape:connector-curvature="0" />
        <path
           d="m 1458.28,101.5 -0.03,0 0.02,0.02 c 0,0 0.01,-0.008 0.01,-0.02"
           style="fill:#3fb995;fill-opacity:1;fill-rule:nonzero;stroke:none"
           id="path108"
           inkscape:connector-curvature="0" />
        <path
           d="m 1369.72,0 -9.92,0 98.45,101.5 0.03,0 c 0.47,-0.648 0.98,-1.281 1.54,-1.8789 l -2.96,-3.9805 4.03,2.9297 c 0.51,-0.4609 1.05,-0.8984 1.61,-1.3086 0.31,-0.2304 0.62,-0.4414 0.94,-0.6406 L 1369.72,0 m 142.46,83.7109 -25.02,15.7383 0,0 25.02,-15.7383 0,0"
           style="fill:#64c89d;fill-opacity:1;fill-rule:nonzero;stroke:none"
           id="path110"
           inkscape:connector-curvature="0" />
        <path
           d="m 1578.13,42.2383 -65.95,41.4726 0,0 65.95,-41.4726 0,0"
           style="fill:#38b78d;fill-opacity:1;fill-rule:nonzero;stroke:none"
           id="path112"
           inkscape:connector-curvature="0" />
        <path
           d="m 1645.31,0 0,0 -67.18,42.2383 0,0 L 1645.31,0"
           style="fill:#64c89d;fill-opacity:1;fill-rule:nonzero;stroke:none"
           id="path114"
           inkscape:connector-curvature="0" />
        <path
           d="m 1498.14,100.93 0,0 -7.14,4.492 0,0 7.14,-4.492"
           style="fill:#3fb995;fill-opacity:1;fill-rule:nonzero;stroke:none"
           id="path116"
           inkscape:connector-curvature="0" />
        <path
           d="m 1517.3,88.8789 -19.16,12.0511 0,0 19.16,-12.0511 0,0"
           style="fill:#64c89d;fill-opacity:1;fill-rule:nonzero;stroke:none"
           id="path118"
           inkscape:connector-curvature="0" />
        <path
           d="m 1562.92,60.1992 -45.62,28.6797 0,0 45.62,-28.6797 0,0"
           style="fill:#38b78d;fill-opacity:1;fill-rule:nonzero;stroke:none"
           id="path120"
           inkscape:connector-curvature="0" />
        <path
           d="m 1658.65,0 0,0 -95.73,60.1992 0,0 L 1658.65,0"
           style="fill:#64c89d;fill-opacity:1;fill-rule:nonzero;stroke:none"
           id="path122"
           inkscape:connector-curvature="0" />
        <path
           d="m 1348.05,425.051 -115.39,296.633 c 2.35,0.414 4.63,1.265 6.69,2.543 l 115.57,-297.125 -6.87,-2.051"
           style="fill:#38b78d;fill-opacity:1;fill-rule:nonzero;stroke:none"
           id="path124"
           inkscape:connector-curvature="0" />
        <path
           d="m 1452.65,175.82 -12.46,12.328 -92.14,236.903 6.87,2.051 97.73,-251.282"
           style="fill:#50c0a6;fill-opacity:1;fill-rule:nonzero;stroke:none"
           id="path126"
           inkscape:connector-curvature="0" />
        <path
           d="m 1463.64,127.871 -23.45,60.277 12.46,-12.328 17.66,-45.41 c -2.34,-0.41 -4.62,-1.262 -6.67,-2.539"
           style="fill:#3fb995;fill-opacity:1;fill-rule:nonzero;stroke:none"
           id="path128"
           inkscape:connector-curvature="0" />
        <path
           d="m 1801.54,560.398 33.64,45.352 0,0 -33.63,-45.352 -0.01,0"
           style="fill:#38b78d;fill-opacity:1;fill-rule:nonzero;stroke:none"
           id="path130"
           inkscape:connector-curvature="0" />
        <path
           d="m 1489.38,139.48 0,0 312.16,420.918 0.01,0 -312.17,-420.918"
           style="fill:#50c0a6;fill-opacity:1;fill-rule:nonzero;stroke:none"
           id="path132"
           inkscape:connector-curvature="0" />
        <path
           d="m 1481.56,128.93 -0.01,0 7.83,10.55 0,0 -7.82,-10.55"
           style="fill:#3fb995;fill-opacity:1;fill-rule:nonzero;stroke:none"
           id="path134"
           inkscape:connector-curvature="0" />
        <path
           d="m 1835.18,605.75 0,0 104.23,140.547 0.01,0 -104.24,-140.547"
           style="fill:#41ba91;fill-opacity:1;fill-rule:nonzero;stroke:none"
           id="path136"
           inkscape:connector-curvature="0" />
        <path
           d="m 1812.94,563.801 29.21,39.379 0,0 -29.21,-39.379 0,0"
           style="fill:#38b78d;fill-opacity:1;fill-rule:nonzero;stroke:none"
           id="path138"
           inkscape:connector-curvature="0" />
        <path
           d="m 1665.87,365.48 147.07,198.321 0,0 -147.07,-198.321"
           style="fill:#50c0a6;fill-opacity:1;fill-rule:nonzero;stroke:none"
           id="path140"
           inkscape:connector-curvature="0" />
        <path
           d="m 1842.15,603.18 0,0 103.03,138.929 0,0 -103.03,-138.929"
           style="fill:#41ba91;fill-opacity:1;fill-rule:nonzero;stroke:none"
           id="path142"
           inkscape:connector-curvature="0" />
        <path
           d="m 2171.43,0 -7.61,0 302.85,825.641 c 2.11,-1.262 4.4,-2.059 6.72,-2.418 L 2171.43,0"
           style="fill:#fefefd;fill-opacity:1;fill-rule:nonzero;stroke:none"
           id="path144"
           inkscape:connector-curvature="0" />
        <path
           d="m 1498.14,100.93 -9.6,0.14 c 0.04,0.051 0.08,0.102 0.12,0.16 0.98,1.321 1.76,2.731 2.34,4.192 l 7.14,-4.492"
           style="fill:#3fb995;fill-opacity:1;fill-rule:nonzero;stroke:none"
           id="path146"
           inkscape:connector-curvature="0" />
        <path
           d="m 1512.18,83.7109 -25.02,15.7383 c 0.48,0.5117 0.94,1.0508 1.38,1.6208 l 9.6,-0.14 19.16,-12.0511 -5.12,-5.168"
           style="fill:#64c89d;fill-opacity:1;fill-rule:nonzero;stroke:none"
           id="path148"
           inkscape:connector-curvature="0" />
        <path
           d="m 1578.13,42.2383 -65.95,41.4726 5.12,5.168 45.62,-28.6797 15.21,-17.9609"
           style="fill:#38b78d;fill-opacity:1;fill-rule:nonzero;stroke:none"
           id="path150"
           inkscape:connector-curvature="0" />
        <path
           d="m 1658.65,0 -13.34,0 -67.18,42.2383 -15.21,17.9609 L 1658.65,0"
           style="fill:#64c89d;fill-opacity:1;fill-rule:nonzero;stroke:none"
           id="path152"
           inkscape:connector-curvature="0" />
        <path
           d="m 1496.02,132.91 0,0 122.83,89.328 0,0 -122.83,-89.328"
           style="fill:#50c0a6;fill-opacity:1;fill-rule:nonzero;stroke:none"
           id="path154"
           inkscape:connector-curvature="0" />
        <path
           d="m 1490.28,128.73 0,0 5.74,4.18 0,0 -5.74,-4.18"
           style="fill:#3fb995;fill-opacity:1;fill-rule:nonzero;stroke:none"
           id="path156"
           inkscape:connector-curvature="0" />
        <path
           d="m 1618.85,222.238 0,0 315.24,229.301 0,-0.008 -315.24,-229.293"
           style="fill:#a3dfcb;fill-opacity:1;fill-rule:nonzero;stroke:none"
           id="path158"
           inkscape:connector-curvature="0" />
        <path
           d="m 2312.6,726.844 0.01,0.008 146.77,106.753 c 0,-0.003 0,-0.003 0,-0.003 L 2312.6,726.844"
           style="fill:#fefefd;fill-opacity:1;fill-rule:nonzero;stroke:none"
           id="path160"
           inkscape:connector-curvature="0" />
        <path
           d="m 1934.09,451.531 0,0.008 378.52,275.313 -0.01,-0.008 -378.51,-275.313"
           style="fill:#86d6d6;fill-opacity:1;fill-rule:nonzero;stroke:none"
           id="path162"
           inkscape:connector-curvature="0" />
        <path
           d="m 1526.99,146.641 77.79,56.578 0,0 -77.79,-56.578"
           style="fill:#50c0a6;fill-opacity:1;fill-rule:nonzero;stroke:none"
           id="path164"
           inkscape:connector-curvature="0" />
        <path
           d="m 1604.78,203.219 0,0 331.72,241.281 0,0 -331.72,-241.281"
           style="fill:#a3dfcb;fill-opacity:1;fill-rule:nonzero;stroke:none"
           id="path166"
           inkscape:connector-curvature="0" />
        <path
           d="m 2304.33,712.035 0,0.008 159.28,115.855 c 0.01,0 0.01,0 0.01,-0.003 l -159.29,-115.86"
           style="fill:#fefefd;fill-opacity:1;fill-rule:nonzero;stroke:none"
           id="path168"
           inkscape:connector-curvature="0" />
        <path
           d="m 1936.5,444.5 0,0 367.83,267.543 0,-0.008 L 1936.5,444.5"
           style="fill:#86d6d6;fill-opacity:1;fill-rule:nonzero;stroke:none"
           id="path170"
           inkscape:connector-curvature="0" />
        <path
           d="m 1456.86,95.6406 2.96,3.9805 c 0.34,-0.3594 0.7,-0.7109 1.07,-1.0508 l -4.03,-2.9297"
           style="fill:#64c89d;fill-opacity:1;fill-rule:nonzero;stroke:none"
           id="path172"
           inkscape:connector-curvature="0" />
        <path
           d="m 1801.55,560.398 33.63,45.352 6.97,-2.57 -29.21,-39.379 -11.39,-3.403"
           style="fill:#38b78d;fill-opacity:1;fill-rule:nonzero;stroke:none"
           id="path174"
           inkscape:connector-curvature="0" />
        <path
           d="m 1501.14,127.84 -5.12,5.07 122.83,89.328 -14.07,-19.019 -77.79,-56.578 -25.85,-18.801 m -6.64,6.582 -5.12,5.058 312.17,420.918 11.39,3.403 L 1665.87,365.48 1494.5,134.422"
           style="fill:#50c0a6;fill-opacity:1;fill-rule:nonzero;stroke:none"
           id="path176"
           inkscape:connector-curvature="0" />
        <path
           d="m 1490.49,120.102 c -1.28,2.687 -3.25,5.117 -5.85,7.007 -0.98,0.711 -2.02,1.321 -3.08,1.821 l 7.82,10.55 5.12,-5.058 -4.22,-5.692 5.74,4.18 5.12,-5.07 -10.65,-7.738"
           style="fill:#3fb995;fill-opacity:1;fill-rule:nonzero;stroke:none"
           id="path178"
           inkscape:connector-curvature="0" />
        <path
           d="m 1604.78,203.219 14.07,19.019 315.24,229.293 2.41,-7.031 -331.72,-241.281"
           style="fill:#a3dfcb;fill-opacity:1;fill-rule:nonzero;stroke:none"
           id="path180"
           inkscape:connector-curvature="0" />
        <path
           d="m 1842.15,603.18 -6.97,2.57 104.24,140.547 c 0.8,-0.856 1.69,-1.652 2.68,-2.367 0.98,-0.715 2.02,-1.325 3.08,-1.821 L 1842.15,603.18"
           style="fill:#41ba91;fill-opacity:1;fill-rule:nonzero;stroke:none"
           id="path182"
           inkscape:connector-curvature="0" />
        <path
           d="m 2304.33,712.043 8.27,14.801 146.78,106.758 c 1,-2.11 2.42,-4.051 4.23,-5.704 L 2304.33,712.043"
           style="fill:#fefefd;fill-opacity:1;fill-rule:nonzero;stroke:none"
           id="path184"
           inkscape:connector-curvature="0" />
        <path
           d="m 1936.5,444.5 -2.41,7.031 378.51,275.313 -8.27,-14.801 L 1936.5,444.5"
           style="fill:#86d6d6;fill-opacity:1;fill-rule:nonzero;stroke:none"
           id="path186"
           inkscape:connector-curvature="0" />
        <path
           d="m 2158.55,794.895 85.11,13.445 0,0 -85.11,-13.445"
           style="fill:#41ba91;fill-opacity:1;fill-rule:nonzero;stroke:none"
           id="path188"
           inkscape:connector-curvature="0" />
        <path
           d="m 2326,821.352 0,0 131.6,20.796 c 0,-0.003 0,-0.003 0,-0.003 L 2326,821.352"
           style="fill:#fefefd;fill-opacity:1;fill-rule:nonzero;stroke:none"
           id="path190"
           inkscape:connector-curvature="0" />
        <path
           d="m 2243.66,808.34 0,0 82.34,13.012 0,0 -82.34,-13.012"
           style="fill:#c7ebd2;fill-opacity:1;fill-rule:nonzero;stroke:none"
           id="path192"
           inkscape:connector-curvature="0" />
        <path
           d="m 2378.26,822.438 80.46,12.714 c 0,-0.004 0,0 0,0 l -80.46,-12.714"
           style="fill:#fefefd;fill-opacity:1;fill-rule:nonzero;stroke:none"
           id="path194"
           inkscape:connector-curvature="0" />
        <path
           d="m 1238.48,756.109 0,0 45.19,53.223 0,0 -45.19,-53.223"
           style="fill:#38b78d;fill-opacity:1;fill-rule:nonzero;stroke:none"
           id="path196"
           inkscape:connector-curvature="0" />
        <path
           d="m 1283.67,809.332 0,0 15.46,18.223 0.01,0 -15.47,-18.223"
           style="fill:#41ba91;fill-opacity:1;fill-rule:nonzero;stroke:none"
           id="path198"
           inkscape:connector-curvature="0" />
        <path
           d="m 1599.71,1181.61 0,0 38.02,44.78 0,0 -38.02,-44.78"
           style="fill:#fefefd;fill-opacity:1;fill-rule:nonzero;stroke:none"
           id="path200"
           inkscape:connector-curvature="0" />
        <path
           d="m 1299.14,827.555 -0.01,0 300.58,354.055 0,0 -300.57,-354.055"
           style="fill:#c7ebd2;fill-opacity:1;fill-rule:nonzero;stroke:none"
           id="path202"
           inkscape:connector-curvature="0" />
        <path
           d="m 1231.23,758.344 c -0.6,0.058 -1.2,0.09 -1.81,0.09 -0.45,0 -0.91,-0.02 -1.36,-0.051 l 2.93,24.023 0.24,-24.062"
           style="fill:#64c99a;fill-opacity:1;fill-rule:nonzero;stroke:none"
           id="path204"
           inkscape:connector-curvature="0" />
        <path
           d="m 1235.16,757.539 c -1.28,0.41 -2.6,0.68 -3.93,0.805 l -0.24,24.062 5.42,44.371 6.9,-2.547 -8.15,-66.691"
           style="fill:#38b78d;fill-opacity:1;fill-rule:nonzero;stroke:none"
           id="path206"
           inkscape:connector-curvature="0" />
        <path
           d="m 1243.31,824.23 -6.9,2.547 0.25,2.047 7.2,-0.148 -0.55,-4.446"
           style="fill:#41ba91;fill-opacity:1;fill-rule:nonzero;stroke:none"
           id="path208"
           inkscape:connector-curvature="0" />
        <path
           d="m 1304.84,1327.87 -6.8,3.37 3.79,31 c 1.87,-0.6 3.81,-0.89 5.74,-0.89 0.46,0 0.91,0.02 1.37,0.05 l -4.1,-33.53"
           style="fill:#fefefd;fill-opacity:1;fill-rule:nonzero;stroke:none"
           id="path210"
           inkscape:connector-curvature="0" />
        <path
           d="m 1243.86,828.676 -7.2,0.148 61.38,502.416 6.8,-3.37 -60.98,-499.194"
           style="fill:#c7ebd2;fill-opacity:1;fill-rule:nonzero;stroke:none"
           id="path212"
           inkscape:connector-curvature="0" />
        <path
           d="m 1635.38,1238.69 -258.38,108.25 258.38,-108.25 0,0 m 2.46,6.65 -307.04,128.64 307.04,-128.64 c 0,0 0,0 0,0"
           style="fill:#fefefd;fill-opacity:1;fill-rule:nonzero;stroke:none"
           id="path214"
           inkscape:connector-curvature="0" />
        <path
           d="m 1247.86,736.855 c 0.4,2.36 0.33,4.766 -0.19,7.083 l 199.05,5.207 17.92,-6.618 -216.78,-5.672"
           style="fill:#38b78d;fill-opacity:1;fill-rule:nonzero;stroke:none"
           id="path216"
           inkscape:connector-curvature="0" />
        <path
           d="m 1464.64,742.527 -17.92,6.618 487.99,12.769 c -0.4,-2.359 -0.33,-4.766 0.19,-7.078 l -470.26,-12.309"
           style="fill:#41ba91;fill-opacity:1;fill-rule:nonzero;stroke:none"
           id="path218"
           inkscape:connector-curvature="0" />
        <path
           d="m 1243.96,751.559 c -0.99,1.211 -2.15,2.32 -3.48,3.285 -0.65,0.469 -1.31,0.89 -2,1.265 l 45.19,53.223 7.11,-2.625 -46.82,-55.148"
           style="fill:#38b78d;fill-opacity:1;fill-rule:nonzero;stroke:none"
           id="path220"
           inkscape:connector-curvature="0" />
        <path
           d="m 1290.78,806.707 -7.11,2.625 15.47,18.223 9.18,-0.188 -17.54,-20.66"
           style="fill:#41ba91;fill-opacity:1;fill-rule:nonzero;stroke:none"
           id="path222"
           inkscape:connector-curvature="0" />
        <path
           d="m 1606.29,1178.35 -6.58,3.26 38.02,44.78 c 1.2,-2.01 2.81,-3.84 4.81,-5.34 l -36.25,-42.7"
           style="fill:#fefefd;fill-opacity:1;fill-rule:nonzero;stroke:none"
           id="path224"
           inkscape:connector-curvature="0" />
        <path
           d="m 1308.32,827.367 -9.18,0.188 300.57,354.055 6.58,-3.26 -297.97,-350.983"
           style="fill:#c7ebd2;fill-opacity:1;fill-rule:nonzero;stroke:none"
           id="path226"
           inkscape:connector-curvature="0" />
        <path
           d="m 1730.59,1116.69 0,0 -65.91,103.98 0,0 65.91,-103.98"
           style="fill:#fefefd;fill-opacity:1;fill-rule:nonzero;stroke:none"
           id="path228"
           inkscape:connector-curvature="0" />
        <path
           d="m 1789.14,1024.32 -58.55,92.37 0,0 58.55,-92.37"
           style="fill:#c7ebd2;fill-opacity:1;fill-rule:nonzero;stroke:none"
           id="path230"
           inkscape:connector-curvature="0" />
        <path
           d="m 1690.28,1166.96 -32.19,50.79 0,0 32.19,-50.79"
           style="fill:#fefefd;fill-opacity:1;fill-rule:nonzero;stroke:none"
           id="path232"
           inkscape:connector-curvature="0" />
        <path
           d="m 1971.87,758.223 c 0.08,2.379 -0.3,4.757 -1.13,6.996 l 187.81,29.676 85.11,13.445 40.21,-0.817 -312,-49.3"
           style="fill:#41ba91;fill-opacity:1;fill-rule:nonzero;stroke:none"
           id="path234"
           inkscape:connector-curvature="0" />
        <path
           d="m 2336.96,815.91 -10.96,5.442 131.6,20.793 c -0.08,-2.379 0.3,-4.758 1.12,-6.993 l -80.46,-12.714 -41.3,-6.528"
           style="fill:#fefefd;fill-opacity:1;fill-rule:nonzero;stroke:none"
           id="path236"
           inkscape:connector-curvature="0" />
        <path
           d="m 2283.87,807.523 -40.21,0.817 82.34,13.012 10.96,-5.442 -53.09,-8.387"
           style="fill:#c7ebd2;fill-opacity:1;fill-rule:nonzero;stroke:none"
           id="path238"
           inkscape:connector-curvature="0" />
        <path
           d="m 1940.37,772.367 -27.05,42.692 8.56,-0.172 24.56,-38.754 c -2.21,-0.84 -4.28,-2.102 -6.07,-3.766"
           style="fill:#41ba91;fill-opacity:1;fill-rule:nonzero;stroke:none"
           id="path240"
           inkscape:connector-curvature="0" />
        <path
           d="m 1730.59,1116.69 -12.32,6.11 -27.99,44.16 -32.19,50.79 c 2.34,0.54 4.59,1.52 6.59,2.92 l 65.91,-103.98"
           style="fill:#fefefd;fill-opacity:1;fill-rule:nonzero;stroke:none"
           id="path242"
           inkscape:connector-curvature="0" />
        <path
           d="m 1921.88,814.887 -8.56,0.172 -195.05,307.741 12.32,-6.11 58.55,-92.37 132.74,-209.433"
           style="fill:#c7ebd2;fill-opacity:1;fill-rule:nonzero;stroke:none"
           id="path244"
           inkscape:connector-curvature="0" />
        <path
           d="m 1635.38,1238.69 -258.38,108.25 -53.9,22.58 c 1.39,2.03 2.31,4.25 2.79,6.52 l 4.91,-2.06 307.04,-128.64 c -1.28,-2.09 -2.09,-4.35 -2.46,-6.65 m 24.1,14.76 0,0 106.38,362.3 0,0 -106.38,-362.3 m -7.22,0.78 106.15,361.52 0,0 -106.15,-361.52 0,0 m -327.77,133.58 c -1.01,2.1 -2.43,4.05 -4.25,5.7 l 438.1928,210.7678 4.4018,-7.6482 L 1324.49,1387.81"
           style="fill:#fefefd;fill-opacity:1;fill-rule:nonzero;stroke:none"
           id="path246"
           inkscape:connector-curvature="0"
           sodipodi:nodetypes="cccccccccccccccccccccc" />
        <path
           d="m 1670.32,1244.61 0,0 97.34,62.96 -97.34,-62.96 m -4.59,5.49 0,0 99.51,64.36 -99.51,-64.36 m -6.25,3.35 c -1.83,0.57 -3.72,0.85 -5.6,0.85 -0.54,0 -1.09,-0.03 -1.62,-0.07 l 69.8549,237.9081 36.2951,123.6119 7.45,0 -106.38,-362.3 m 221.9,153.83 -127.5175,208.47 7.39,-3.8241 L 1888.31,1409.06 c -2.4,-0.15 -4.75,-0.75 -6.93,-1.78"
           style="fill:#fefefd;fill-opacity:1;fill-rule:nonzero;stroke:none"
           id="path248"
           inkscape:connector-curvature="0"
           sodipodi:nodetypes="cccccccccscccccccccc" />
        <path
           d="m 2501.34,825.609 -10.07,4.813 c 0.04,0.047 0.07,0.09 0.11,0.137 0.5,0.679 0.95,1.379 1.35,2.097 l 8.61,-7.047 m -43.14,20.621 -789.76,377.47 -0.28,0.13 c 0.27,0.32 0.53,0.65 0.79,1 1.2,1.62 2.1,3.38 2.7,5.2 l 779.6,-372.608 -471.32,385.668 c 1.18,0.96 2.26,2.09 3.21,3.36 0.5,0.68 0.95,1.39 1.35,2.1 l 479.93,-392.726 c -1.18,-0.961 -2.26,-2.082 -3.21,-3.355 -1.43,-1.938 -2.43,-4.051 -3.01,-6.239"
           style="fill:#fefefd;fill-opacity:1;fill-rule:nonzero;stroke:none"
           id="path250"
           inkscape:connector-curvature="0" />
        <path
           d="m 1672.49,1234.04 c 0.23,2.38 -0.01,4.77 -0.7,7.05 l 277.7,18.62 c -0.3,-2.37 -0.13,-4.77 0.48,-7.06 l -277.48,-18.61 m -2.17,10.57 c -1.13,2.05 -2.67,3.93 -4.59,5.49 l 99.51,64.36 106.9,69.15 c 0.89,-2.17 2.2,-4.19 3.91,-5.93 l -108.39,-70.11 -97.34,-62.96 m 285.38,26.71 -60.06,101.79 c 2.24,0.77 4.34,1.96 6.18,3.56 l 60.06,-101.78 c -2.24,-0.77 -4.34,-1.97 -6.18,-3.57"
           style="fill:#fefefd;fill-opacity:1;fill-rule:nonzero;stroke:none"
           id="path252"
           inkscape:connector-curvature="0" />
        <path
           d="m 1653.85,1217.27 c -3.84,0 -7.72,1.16 -11.06,3.59 -0.08,0.06 -0.17,0.12 -0.25,0.19 -2,1.5 -3.61,3.33 -4.81,5.34 l 0,0 c -2.2,3.71 -3.02,8.07 -2.35,12.3 l 0,0 c 0.37,2.3 1.18,4.56 2.46,6.65 0,0 0,0 0,0 0.29,0.48 0.6,0.94 0.94,1.39 3.32,4.48 8.29,7.05 13.48,7.5 l 0,0 c 0.53,0.04 1.08,0.07 1.62,0.07 1.88,0 3.77,-0.28 5.6,-0.85 l 0,0 c 1.91,-0.6 3.75,-1.51 5.45,-2.74 0.27,-0.2 0.54,-0.4 0.8,-0.61 l 0,0 c 1.92,-1.56 3.46,-3.44 4.59,-5.49 0,0 0,0 0,0 0.61,-1.13 1.1,-2.31 1.47,-3.52 0.69,-2.28 0.93,-4.67 0.7,-7.05 -0.12,-1.35 -0.4,-2.7 -0.84,-4.01 -0.6,-1.82 -1.5,-3.58 -2.7,-5.2 -0.26,-0.35 -0.52,-0.68 -0.79,-1 l 0,0 c -1.04,-1.22 -2.21,-2.27 -3.48,-3.16 l 0,0 c -2,-1.4 -4.25,-2.38 -6.59,-2.92 l 0,0 c -1.39,-0.32 -2.81,-0.48 -4.24,-0.48"
           style="fill:#fefefd;fill-opacity:1;fill-rule:nonzero;stroke:none"
           id="path254"
           inkscape:connector-curvature="0" />
        <path
           d="m 1968.04,1238.89 c -3.84,0 -7.72,1.17 -11.06,3.59 -3.58,2.6 -5.95,6.23 -7.01,10.17 -0.61,2.29 -0.78,4.69 -0.48,7.06 0.38,3.03 1.52,6.01 3.48,8.65 0.82,1.1 1.74,2.09 2.73,2.96 1.84,1.6 3.94,2.8 6.18,3.57 1.99,0.68 4.08,1.04 6.19,1.04 3.84,0 7.72,-1.17 11.05,-3.59 7.65,-5.56 9.79,-15.77 5.37,-23.79 -0.4,-0.71 -0.85,-1.42 -1.35,-2.1 -0.95,-1.27 -2.03,-2.4 -3.21,-3.36 -3.4,-2.75 -7.62,-4.2 -11.89,-4.2"
           style="fill:#fefefd;fill-opacity:1;fill-rule:nonzero;stroke:none"
           id="path256"
           inkscape:connector-curvature="0" />
        <path
           d="m 1889.46,1372.07 c -3.85,0 -7.72,1.16 -11.06,3.59 -0.85,0.62 -1.63,1.29 -2.35,2.02 -1.71,1.74 -3.02,3.76 -3.91,5.93 -2.36,5.75 -1.74,12.55 2.25,17.93 1.88,2.54 4.3,4.47 6.99,5.74 2.18,1.03 4.53,1.63 6.93,1.78 0.39,0.03 0.78,0.04 1.18,0.04 3.84,0 7.71,-1.17 11.05,-3.59 8.33,-6.05 10.13,-17.63 4.01,-25.88 -0.81,-1.1 -1.73,-2.09 -2.73,-2.96 -1.84,-1.6 -3.94,-2.79 -6.18,-3.56 -1.99,-0.69 -4.08,-1.04 -6.18,-1.04"
           style="fill:#fefefd;fill-opacity:1;fill-rule:nonzero;stroke:none"
           id="path258"
           inkscape:connector-curvature="0" />
        <path
           d="m 1307.57,1361.35 c -1.93,0 -3.87,0.29 -5.74,0.89 -1.86,0.6 -3.65,1.49 -5.32,2.7 -8.33,6.05 -10.12,17.63 -4.01,25.88 3.67,4.94 9.35,7.56 15.1,7.56 3.84,0 7.72,-1.17 11.05,-3.59 0.56,-0.4 1.09,-0.83 1.59,-1.28 1.82,-1.65 3.24,-3.6 4.25,-5.7 1.75,-3.65 2.25,-7.8 1.4,-11.77 -0.48,-2.27 -1.4,-4.49 -2.79,-6.52 -0.14,-0.2 -0.28,-0.41 -0.43,-0.61 -3.38,-4.55 -8.46,-7.13 -13.73,-7.51 -0.46,-0.03 -0.91,-0.05 -1.37,-0.05"
           style="fill:#fefefd;fill-opacity:1;fill-rule:nonzero;stroke:none"
           id="path260"
           inkscape:connector-curvature="0" />
        <path
           d="m 1229.39,721.402 c -3.84,0 -7.72,1.168 -11.05,3.59 -8.33,6.047 -10.13,17.637 -4.02,25.875 3.38,4.555 8.46,7.137 13.74,7.516 0.45,0.031 0.91,0.051 1.36,0.051 0.61,0 1.21,-0.032 1.81,-0.09 l 0.37,-36.813 c -0.73,-0.086 -1.47,-0.129 -2.21,-0.129"
           style="fill:#64c99a;fill-opacity:1;fill-rule:nonzero;stroke:none"
           id="path262"
           inkscape:connector-curvature="0" />
        <path
           d="m 1231.6,721.531 -0.37,36.813 c 1.33,-0.125 2.65,-0.395 3.93,-0.805 1.14,-0.363 2.25,-0.84 3.32,-1.43 l 0,0 c 0.69,-0.375 1.35,-0.796 2,-1.265 1.33,-0.965 2.49,-2.074 3.48,-3.285 1.85,-2.254 3.1,-4.875 3.71,-7.621 0.52,-2.317 0.59,-4.723 0.19,-7.083 -0.46,-2.769 -1.58,-5.472 -3.37,-7.89 -1.44,-1.945 -3.2,-3.531 -5.14,-4.738 -2.06,-1.278 -4.34,-2.129 -6.69,-2.543 -0.35,-0.059 -0.7,-0.114 -1.06,-0.153"
           style="fill:#38b78d;fill-opacity:1;fill-rule:nonzero;stroke:none"
           id="path264"
           inkscape:connector-curvature="0" />
        <path
           d="m 1953.15,740.34 c -2.7,0 -5.43,0.578 -7.97,1.769 l 0,0 c -1.06,0.496 -2.1,1.106 -3.08,1.821 -0.99,0.715 -1.88,1.511 -2.68,2.367 l -0.01,0 c -2.28,2.449 -3.8,5.406 -4.51,8.539 -0.52,2.312 -0.59,4.719 -0.19,7.078 0.47,2.77 1.58,5.477 3.37,7.895 0.7,0.937 1.47,1.793 2.29,2.558 1.79,1.664 3.86,2.926 6.07,3.766 2.15,0.816 4.44,1.238 6.74,1.238 3.85,0 7.72,-1.168 11.06,-3.59 3.09,-2.246 5.28,-5.25 6.5,-8.562 0.83,-2.239 1.21,-4.617 1.13,-6.996 -0.12,-3.598 -1.3,-7.2 -3.62,-10.321 -3.66,-4.941 -9.34,-7.562 -15.1,-7.562"
           style="fill:#41ba91;fill-opacity:1;fill-rule:nonzero;stroke:none"
           id="path266"
           inkscape:connector-curvature="0" />
        <path
           d="m 1488.54,101.07 -30.26,0.43 c 0,0.012 -0.01,0.02 -0.01,0.02 -4.5,6.32 -4.66,15.039 0.22,21.621 1.44,1.937 3.2,3.531 5.15,4.73 2.05,1.277 4.33,2.129 6.67,2.539 1.08,0.192 2.18,0.289 3.28,0.289 2.7,0 5.43,-0.578 7.96,-1.769 l 0.01,0 c 1.06,-0.5 2.1,-1.11 3.08,-1.821 2.6,-1.89 4.57,-4.32 5.85,-7.007 2.17,-4.563 2.41,-9.883 0.51,-14.68 l 0,0 c -0.58,-1.461 -1.36,-2.871 -2.34,-4.192 -0.04,-0.058 -0.08,-0.109 -0.12,-0.16"
           style="fill:#3fb995;fill-opacity:1;fill-rule:nonzero;stroke:none"
           id="path268"
           inkscape:connector-curvature="0" />
        <path
           d="m 1473.56,93.6719 c -3.49,0 -7.01,0.957 -10.12,2.9492 -0.32,0.1992 -0.63,0.4102 -0.94,0.6406 -0.56,0.4102 -1.1,0.8477 -1.61,1.3086 -0.37,0.3399 -0.73,0.6914 -1.07,1.0508 -0.56,0.5979 -1.07,1.2309 -1.54,1.8789 l 30.26,-0.43 c -0.44,-0.57 -0.9,-1.1091 -1.38,-1.6208 l 0,0 c -3.62,-3.789 -8.58,-5.7773 -13.6,-5.7773"
           style="fill:#64c89d;fill-opacity:1;fill-rule:nonzero;stroke:none"
           id="path270"
           inkscape:connector-curvature="0" />
        <path
           d="m 2476.28,823 c -0.96,0 -1.93,0.074 -2.89,0.223 -2.32,0.359 -4.61,1.156 -6.72,2.418 -0.49,0.289 -0.97,0.605 -1.44,0.949 -0.57,0.41 -1.11,0.848 -1.61,1.305 0,0.003 0,0.003 -0.01,0.003 -1.81,1.653 -3.23,3.594 -4.23,5.704 0,0 0,0 0,0.003 -0.25,0.504 -0.46,1.024 -0.66,1.547 0,0 0,-0.004 0,0 -0.82,2.235 -1.2,4.614 -1.12,6.993 0,0 0,0 0,0.003 0.04,1.368 0.24,2.739 0.6,4.082 0.58,2.188 1.58,4.301 3.01,6.239 0.95,1.273 2.03,2.394 3.21,3.355 3.39,2.766 7.62,4.203 11.89,4.203 3.84,0 7.72,-1.164 11.06,-3.586 7.64,-5.554 9.78,-15.769 5.36,-23.785 -0.4,-0.718 -0.85,-1.418 -1.35,-2.097 -0.04,-0.047 -0.07,-0.09 -0.11,-0.137 -3.66,-4.852 -9.29,-7.422 -14.99,-7.422"
           style="fill:#fefefd;fill-opacity:1;fill-rule:nonzero;stroke:none"
           id="path272"
           inkscape:connector-curvature="0" />
      </g>
    </g>
    <path
       d="m 302.202,821.361 c -0.48125,0 -0.965,-0.145 -1.3825,-0.44875 -0.10625,-0.0775 -0.20375,-0.16125 -0.29375,-0.2525 -0.21375,-0.2175 -0.3775,-0.47 -0.48875,-0.74125 -0.295,-0.71875 -0.2175,-1.56875 0.28125,-2.24125 0.235,-0.3175 0.5375,-0.55875 0.87375,-0.7175 0.2725,-0.12875 0.56625,-0.20375 0.86625,-0.2225 0.0488,-0.004 0.0975,-0.005 0.1475,-0.005 0.48,0 0.96375,0.14625 1.38125,0.44875 1.04125,0.75625 1.26625,2.20375 0.50125,3.235 -0.10125,0.1375 -0.21625,0.26125 -0.34125,0.37 -0.23,0.2 -0.4925,0.34875 -0.7725,0.445 -0.24875,0.0863 -0.51,0.13 -0.7725,0.13"
       style="fill:#fefefd;fill-opacity:1;fill-rule:nonzero;stroke:none"
       id="path258-8"
       inkscape:connector-curvature="0" />
  </g>
</svg>
